<?xml version="1.0" encoding="UTF-8" standalone="no"?>
<!-- Generator: Adobe Illustrator 19.0.0, SVG Export Plug-In . SVG Version: 6.00 Build 0)  -->

<svg
   version="1.1"
   id="layer"
   x="0px"
   y="0px"
   viewBox="-153 -46 600.09998 305.70001"
   xml:space="preserve"
   sodipodi:docname="lapc2.svg"
   width="600.09998"
   height="305.70001"
   inkscape:version="1.1 (c68e22c387, 2021-05-23)"
   xmlns:inkscape="http://www.inkscape.org/namespaces/inkscape"
   xmlns:sodipodi="http://sodipodi.sourceforge.net/DTD/sodipodi-0.dtd"
   xmlns="http://www.w3.org/2000/svg"
   xmlns:svg="http://www.w3.org/2000/svg"><defs
   id="defs13" /><sodipodi:namedview
   id="namedview11"
   pagecolor="#ffffff"
   bordercolor="#666666"
   borderopacity="1.0"
   inkscape:pageshadow="2"
   inkscape:pageopacity="0.0"
   inkscape:pagecheckerboard="true"
   showgrid="false"
   fit-margin-top="0"
   fit-margin-left="0"
   fit-margin-right="0"
   fit-margin-bottom="0"
   inkscape:zoom="0.91316551"
   inkscape:cx="125.388"
   inkscape:cy="-26.829748"
   inkscape:window-width="2560"
   inkscape:window-height="1027"
   inkscape:window-x="-8"
   inkscape:window-y="-8"
   inkscape:window-maximized="1"
   inkscape:current-layer="layer1" />
<style
   type="text/css"
   id="style2">
	.st0{fill:#990000;}
</style>



<g
   inkscape:groupmode="layer"
   id="layer1"
   inkscape:label="Layer 1"
   style="display:inline"
   transform="translate(-21.7,-168.3)"><path
     d="m -114.4,122.3 v 0 c 1.1,0 2,0.7 2,1.7 v 61 h -4.1 v -61 c 0.1,-0.9 1,-1.7 2.1,-1.7 m 19.7,33.4 c 0,-7.2 2.5,-13.3 7.6,-18.5 5.1,-5.2 11.2,-7.8 18.3,-7.8 7.1,0 13.2,2.6 18.3,7.7 5,5.2 7.5,11.4 7.5,18.7 0,7.4 -2.5,13.7 -7.5,18.8 -5,5.1 -11.1,7.7 -18.3,7.7 -7.2,0 -13.3,-2.6 -18.4,-7.7 -5,-5.2 -7.5,-11.5 -7.5,-18.9 m 25.9,-29.9 c -8.3,0 -15.4,2.9 -21.3,8.7 -5.9,5.8 -8.8,12.8 -8.8,21.1 0,8.5 2.9,15.6 8.7,21.4 5.8,5.8 13,8.7 21.4,8.7 8.4,0 15.5,-2.9 21.3,-8.8 5.8,-5.9 8.7,-12.9 8.7,-21.3 0,-8.4 -3,-15.5 -8.9,-21.2 -5.8,-5.7 -12.8,-8.6 -21.1,-8.6 m 38.8,45.1 c 0.9,4.9 2.9,8.6 6.1,11.2 3.2,2.6 7.4,3.8 12.6,3.8 5.1,0 9.4,-1.6 12.7,-4.7 3.4,-3.2 5.1,-7.2 5.1,-12.1 0,-7.7 -4.4,-12.9 -13.2,-15.6 l -4.9,-1.5 c -3.8,-1.3 -6.6,-2.6 -8.5,-4.1 -1.9,-1.4 -2.8,-3.7 -2.8,-6.8 0,-3.3 1.2,-6.1 3.7,-8.3 2.4,-2.2 5.6,-3.2 9.3,-3.2 3.1,0 5.6,0.8 7.7,2.5 2.1,1.6 3.3,3.8 3.8,6.5 h 4.6 c -0.9,-4.3 -2.7,-7.5 -5.5,-9.6 -2.8,-2.2 -6.5,-3.2 -11,-3.2 -5,0 -9.2,1.5 -12.4,4.4 -3.2,2.9 -4.9,6.6 -4.9,11 0,4.5 1.1,7.6 3.4,9.4 2.2,1.8 4,2.9 5.2,3.3 0.7,0.4 1.8,0.8 3.3,1.3 0.9,0.3 1.8,0.6 2.8,0.9 l 6.2,2.1 3.9,1.8 c 1.6,1.1 2.9,2.4 3.7,4.1 0.8,1.7 1.2,3.4 1.2,5.3 0,3.6 -1.3,6.6 -3.9,9 -2.6,2.4 -5.9,3.6 -9.7,3.6 -3.7,0 -6.8,-1 -9.4,-3 -2.6,-2 -4.1,-4.7 -4.6,-8.1 z m 82,-14.7 c 0,-7.5 2.5,-13.8 7.5,-18.9 5,-5.1 11.2,-7.7 18.5,-7.7 7.2,0 13.3,2.5 18.3,7.6 5,5.1 7.5,11.2 7.5,18.5 0,7.4 -2.5,13.7 -7.6,18.8 -5.1,5.1 -11.2,7.7 -18.4,7.7 -7.3,0 -13.4,-2.5 -18.4,-7.6 -4.9,-5 -7.4,-11.2 -7.4,-18.4 m 51.8,-14.7 0.6,4.5 c -1.1,-5.9 -4.2,-10.7 -9.3,-14.5 -5,-3.8 -10.9,-5.6 -17.7,-5.6 -8.3,0 -15.3,3 -21.1,8.9 -5.8,5.9 -8.6,13 -8.6,21.3 0,8.2 2.9,15.3 8.7,21.1 5.8,5.8 12.8,8.7 20.9,8.7 6.7,0 12.5,-1.8 17.4,-5.4 4.9,-3.6 8.2,-8.3 9.6,-14.1 l -0.6,3.3 v 6.9 8.4 h 3.6 v -58.4 h -3.6 v 9 5.9 z m 20.6,43.5 h 4.1 v -32.8 c 0,-6.5 2,-11.9 6.1,-16.3 4.1,-4.4 9,-6.6 14.8,-6.6 4,0 7.6,1.1 11,3.3 3.4,2.2 5.6,4.8 6.8,7.9 1.2,3.1 1.7,7.3 1.7,12.7 V 185 h 4.3 v -32.6 c 0,-2.6 -0.2,-5 -0.5,-7.2 -0.4,-2.2 -0.9,-4.2 -1.5,-6 -1.3,-3.6 -3.9,-6.8 -8,-9.5 -4.1,-2.7 -8.5,-4.1 -13.4,-4.1 -5.3,0 -9.9,1.4 -13.8,4.3 -3.9,2.8 -6.6,6.9 -8.4,12.1 0.6,-3.6 0.9,-6.5 0.9,-8.6 v -6.7 h -4.1 z m 195.1,-27.5 0.1,-1.9 c 0,-8 -3,-15 -9.1,-20.9 -6.1,-5.9 -13.2,-8.8 -21.3,-8.8 -8.3,0 -15.4,2.9 -21.1,8.8 -5.8,5.9 -8.7,13 -8.7,21.4 0,8.2 3,15.3 8.8,21 5.9,5.8 13,8.7 21.2,8.7 9,0 16.6,-3.6 22.9,-10.9 l -3.4,-2.7 c -3.1,3.4 -6.2,5.9 -9.2,7.4 -3,1.5 -6.4,2.2 -10.3,2.2 -7.3,0 -13.4,-2.6 -18.4,-7.7 -4.9,-5.1 -7.4,-11.3 -7.4,-18.6 0,-7.2 2.5,-13.4 7.5,-18.5 5,-5.1 10.9,-7.6 17.9,-7.6 6.9,0 12.7,2.2 17.5,6.7 4.8,4.5 7.6,10.3 8.5,17.6 h -43.7 v 3.7 h 48.2 z m 12.7,27.5 h 4.1 v -62.6 h -4.1 z m 77.6,-27.5 0.1,-1.9 c 0,-8 -3,-15 -9.1,-20.9 -6.1,-5.9 -13.2,-8.8 -21.3,-8.8 -8.3,0 -15.4,2.9 -21.1,8.8 -5.8,5.9 -8.7,13 -8.7,21.4 0,8.2 3,15.3 8.8,21 5.9,5.8 13,8.7 21.2,8.7 9,0 16.6,-3.6 22.9,-10.9 l -3.4,-2.7 c -3.1,3.4 -6.2,5.9 -9.2,7.4 -3,1.5 -6.4,2.2 -10.3,2.2 -7.3,0 -13.4,-2.6 -18.4,-7.7 -4.9,-5.1 -7.4,-11.3 -7.4,-18.6 0,-7.2 2.5,-13.4 7.5,-18.5 5,-5.1 10.9,-7.6 17.9,-7.6 6.9,0 12.7,2.2 17.5,6.7 4.8,4.5 7.6,10.3 8.5,17.6 h -43.7 v 3.7 h 48.2 z m 8,13.4 c 0.9,4.9 2.9,8.6 6.1,11.2 3.2,2.6 7.4,3.8 12.6,3.8 5.1,0 9.4,-1.6 12.7,-4.7 3.4,-3.2 5.1,-7.2 5.1,-12.1 0,-7.7 -4.4,-12.9 -13.2,-15.6 l -4.9,-1.5 c -3.8,-1.3 -6.6,-2.6 -8.5,-4.1 -1.9,-1.4 -2.8,-3.7 -2.8,-6.8 0,-3.3 1.2,-6.1 3.7,-8.3 2.4,-2.2 5.6,-3.2 9.3,-3.2 3.1,0 5.6,0.8 7.7,2.5 2.1,1.6 3.3,3.8 3.8,6.5 h 4.6 c -0.9,-4.3 -2.7,-7.5 -5.5,-9.6 -2.8,-2.2 -6.5,-3.2 -11,-3.2 -5,0 -9.2,1.5 -12.4,4.4 -3.2,2.9 -4.9,6.6 -4.9,11 0,4.5 1.1,7.6 3.4,9.4 2.2,1.8 4,2.9 5.2,3.3 0.7,0.4 1.8,0.8 3.3,1.3 0.9,0.3 1.8,0.6 2.8,0.9 l 6.2,2.1 3.9,1.8 c 1.6,1.1 2.9,2.4 3.7,4.1 0.8,1.7 1.2,3.4 1.2,5.3 0,3.6 -1.3,6.6 -3.9,9 -2.6,2.4 -5.9,3.6 -9.7,3.6 -3.7,0 -6.8,-1 -9.4,-3 -2.6,-2 -4.1,-4.7 -4.6,-8.1 z M 199.7,154.1 v 3.7 h 43.8 c -0.9,7.3 -3.8,13.1 -8.5,17.6 -4.8,4.5 -10.6,6.7 -17.5,6.7 -7,0 -13,-2.5 -17.9,-7.6 -5,-5.1 -7.5,-11.3 -7.5,-18.5 0,-7.3 2.5,-13.5 7.4,-18.7 4.9,-5.1 11.1,-7.7 18.4,-7.7 3.8,0 7.3,0.7 10.3,2.2 3,1.5 6.1,3.9 9.2,7.4 l 3.4,-2.7 c -6.3,-7.3 -14,-10.9 -23,-10.9 -8.3,0 -15.3,2.9 -21.2,8.7 -5.9,5.8 -8.9,12.8 -8.9,21.1 0,8.4 2.9,15.5 8.7,21.4 5.8,5.9 12.9,8.9 21.2,8.9 8.1,0 15.2,-3 21.3,-8.9 6.1,-5.9 9.1,-12.9 9.1,-20.9 l -0.1,-1.9 h -48.2 z"
     id="path4" /><path
     d="m -21.8,377.3 c 0,-18.4 13.9,-33.2 33.2,-33.2 19.2,0 33.2,14.8 33.2,33.2 0,18.4 -14,33.2 -33.2,33.2 -19.3,0 -33.2,-14.8 -33.2,-33.2 m -19.6,0 c 0,25.3 19.3,50.4 52.7,50.4 C 44.7,427.7 64,402.6 64,377.3 64,352 44.6,326.9 11.3,326.9 -22,327 -41.4,352 -41.4,377.3 m -10.9,20.2 c -6.2,8.3 -15.9,13.4 -26.9,13.4 -17.4,0 -33.2,-14.7 -33.2,-33.5 0,-18.8 15.7,-33.5 33.2,-33.5 11,0 20.4,5.1 26.5,14 l 14.8,-11.1 c -10.8,-13.6 -25.9,-19.9 -41.4,-19.9 -29,0 -52,22.1 -52,50.5 0,28.4 23,50.5 52,50.5 15.4,0 30.6,-6.3 41.4,-19.9 z m 144,-72.8 h -21 v 103.2 h 21 z m 45.3,0 H 116 V 428 h 21 z M 356.2,370 h -70.8 v 17.9 h 51.9 c -5.1,17.3 -20.5,23.1 -31.4,23.1 -17.4,0 -33.2,-14.7 -33.2,-33.5 0,-18.8 15.8,-33.5 33.2,-33.5 11,0 20.4,5.1 26.5,14 l 14.8,-11.1 C 336.4,333.3 321.3,327 305.8,327 c -29,0 -52,22.1 -52,50.5 0,28.4 23,50.5 52,50.5 25.4,0 54.7,-19 50.4,-58 m -108.5,7.4 c 0,-28.4 -23,-50.5 -52,-50.5 -29,0 -52,22.1 -52,50.5 0,28.4 23,50.5 52,50.5 22.5,0 41.4,-13.3 48.7,-32.5 l -20.8,-0.1 c -6.1,9.4 -16.6,15.6 -27.9,15.6 -17.4,0 -33.2,-14.7 -33.2,-33.5 0,-18.8 15.7,-33.5 33.2,-33.5 14.7,0 28.1,10.4 32,24.9 h -55 v 18 h 74 v -0.1 h 0.1 c 0.6,-3 0.9,-6.2 0.9,-9.3 m 219.8,-0.2 c 0,-28.4 -23,-50.5 -52,-50.5 -29,0 -52,22.1 -52,50.5 0,28.4 23,50.5 52,50.5 22.5,0 41.4,-13.3 48.7,-32.5 l -20.8,-0.1 c -6,9.4 -16.6,15.6 -27.9,15.6 -17.4,0 -33.2,-14.7 -33.2,-33.5 0,-18.8 15.7,-33.5 33.2,-33.5 14.6,0 28.1,10.4 32,24.9 h -55 v 18 h 74 v -0.1 h 0.1 c 0.7,-3 0.9,-6.1 0.9,-9.3"
     id="path6" /><path
     class="st0"
     d="M -7.7,199.1 H 14.1 V 317.3 H -7.7 Z m 156.9,56.5 C 149.2,221 121.1,194 85.8,194 c -35.4,0 -63.4,26.9 -63.4,61.6 0,34.6 28,61.6 63.4,61.6 27.5,0 50.5,-16.2 59.5,-39.7 l -25.4,-0.1 c -7.4,11.5 -20.3,19 -34.1,19 -21.3,0 -40.5,-17.9 -40.5,-40.8 0,-23 19.2,-40.9 40.5,-40.9 17.9,0 34.2,12.7 39,30.3 H 57.7 v 22 H 148 v -0.1 h 0.2 c 0.7,-3.6 1,-7.4 1,-11.3 m 319.6,0.3 c 0,-34.6 -28,-61.6 -63.4,-61.6 -35.4,0 -63.4,26.9 -63.4,61.6 0,34.6 28,61.6 63.4,61.6 27.5,0 50.5,-16.2 59.4,-39.7 l -25.4,-0.1 c -7.4,11.5 -20.3,19 -34.1,19 -21.3,0 -40.5,-17.9 -40.5,-40.9 0,-23 19.2,-40.9 40.5,-40.9 17.9,0 34.2,12.7 39,30.3 h -67.1 v 21.9 h 90.3 V 267 h 0.2 c 0.8,-3.4 1.1,-7.2 1.1,-11.1 m -561.6,-36 v 39.5 H -60 c 15.4,0 22.4,-9.2 22.4,-19.8 0,-10.5 -7,-19.8 -22.4,-19.8 h -32.8 m -36.1,-0.5 v -20.2 h 70.6 c 26.4,0 42.6,17.3 42.6,40.5 0,23.2 -16.2,40.5 -42.6,40.5 h -34.5 v 37.3 h -21.8 v -98.1 z m 348.2,-25.7 c -15.4,0 -29.4,5.2 -40.3,13.8 V 199 H 157.2 V 317.2 H 179 v -65.1 c 1.6,-21.5 20,-37.9 40.3,-37.9 4,0 7.8,0.5 11.4,1.6 l 13.9,-17.3 c -8.1,-3.3 -16.7,-4.9 -25.3,-4.9 m 107.2,86.6 c -7.5,10.2 -19.4,16.4 -32.8,16.4 -21.3,0 -40.5,-17.9 -40.5,-40.8 0,-23 19.2,-40.9 40.5,-40.9 13.4,0 24.9,6.2 32.4,17.1 l 18.1,-13.6 c -13.2,-16.6 -31.6,-24.3 -50.5,-24.3 -35.4,0 -63.4,26.9 -63.4,61.6 0,34.6 28.1,61.5 63.4,61.5 18.8,0 37.3,-7.7 50.5,-24.3 z"
     id="path8" /></g></svg>
